<?xml version="1.0" encoding="UTF-8" standalone="no"?>
<svg
   xmlns:dc="http://purl.org/dc/elements/1.1/"
   xmlns:cc="http://creativecommons.org/ns#"
   xmlns:rdf="http://www.w3.org/1999/02/22-rdf-syntax-ns#"
   xmlns:svg="http://www.w3.org/2000/svg"
   xmlns="http://www.w3.org/2000/svg"
   viewBox="0 0 332.60001 301.85333"
   height="301.85333"
   width="332.60001"
   xml:space="preserve"
   id="svg2"
   version="1.1"><metadata
     id="metadata8"><rdf:RDF><cc:Work
         rdf:about=""><dc:format>image/svg+xml</dc:format><dc:type
           rdf:resource="http://purl.org/dc/dcmitype/StillImage" /><dc:title></dc:title></cc:Work></rdf:RDF></metadata><defs
     id="defs6" /><g
     transform="matrix(1.3333333,0,0,-1.3333333,0,301.85333)"
     id="g10"><g
       transform="scale(0.1)"
       id="g12"><path
         id="path14"
         style="fill:#73c82c;fill-opacity:1;fill-rule:nonzero;stroke:none"
         d="M 0,226.77 H 2494.49 V 0 H 0 v 226.77 0" /><path
         id="path16"
         style="fill:#73c82c;fill-opacity:1;fill-rule:nonzero;stroke:none"
         d="m 340.156,2037.09 c -62.617,0 -113.379,-50.77 -113.379,-113.39 V 789.852 c 0,-62.633 50.762,-113.391 113.379,-113.391 H 2154.33 c 62.62,0 113.38,50.758 113.38,113.391 V 1923.7 c 0,62.62 -50.76,113.39 -113.38,113.39 H 340.156 Z m 0,226.77 H 2154.33 c 187.87,0 340.16,-152.29 340.16,-340.16 V 789.852 C 2494.49,601.98 2342.2,449.68 2154.33,449.68 H 340.156 C 152.289,449.68 0,601.98 0,789.852 V 1923.7 c 0,187.87 152.289,340.16 340.156,340.16 v 0" /><path
         id="path18"
         style="fill:#73c82c;fill-opacity:1;fill-rule:nonzero;stroke:none"
         d="m 1243.06,1811.78 c 399.5,0 680.04,-136.9 918.4,-454.41 -242.76,-314.14 -517.91,-452.671 -918.4,-452.671 -407.396,0 -665.814,137.391 -918.607,450.251 229.887,317.28 526.215,456.83 918.607,456.83 z M 823.316,1530.37 C 727.324,1487.95 644.75,1430.4 579.449,1360.4 c 72.09,-75.17 153.012,-133.29 244.203,-175.12 -22.004,53.3 -34.14,111.72 -34.14,172.95 0,60.94 12.011,119.06 33.804,172.14 z m 839.344,-344.6 c 93.48,42.18 175.22,100.15 244.28,173.13 -67.66,72.46 -149.7,130.56 -244.72,172.86 22.16,-53.45 34.38,-112.06 34.38,-173.53 0,-61.05 -12.07,-119.29 -33.94,-172.46 z m -419.6,427.59 c -140.91,0 -255.122,-114.22 -255.122,-255.13 0,-140.89 114.212,-255.11 255.122,-255.11 140.9,0 255.11,114.22 255.11,255.11 0,140.91 -114.21,255.13 -255.11,255.13 v 0" /><path
         id="path20"
         style="fill:#73c82c;fill-opacity:1;fill-rule:nonzero;stroke:none"
         d="m 1129.66,1358.23 c 0,62.63 50.77,113.4 113.4,113.4 62.61,0 113.38,-50.77 113.38,-113.4 0,-62.62 -50.77,-113.37 -113.38,-113.37 -62.63,0 -113.4,50.75 -113.4,113.37 v 0" /></g></g></svg>
